<svg xmlns="http://www.w3.org/2000/svg" viewBox="20.0050048828125 146.09195017094845 534.989990234375 287.3207056905099"> <svg xmlns="http://www.w3.org/2000/svg" xmlns:xlink="http://www.w3.org/1999/xlink" version="1.1" id="dddd_1" x="234.641575546696" y="216.09195017094845" viewBox="1290.0999755859375 391 2419.80029296875 2218" xml:space="preserve" height="83.37954296473764" width="90.96566907979624" preserveAspectRatio="xMinYMin" enable-background="new 0 0 5000 3000" style="overflow: visible;"><rect x="1918.9" y="957.9" width="1471" height="79" style="fill: #cba978; fill-opacity: 1;"></rect><rect x="1918.9" y="2548" width="1471" height="61" style="fill: #cba978; fill-opacity: 1;"></rect><path d="M2181.7,2367.1h-102.7v61h1151v-61h-102.7c-7.2-98-48.5-189.3-118.7-259.6l-325.3-325.3l325.3-325.3   c70.2-70.2,111.5-161.6,118.7-259.7H3230v-61h-1151v61h102.7c7.2,98.1,48.4,189.4,118.7,259.7l325.3,325.3l-325.4,325.3   C2230.1,2177.8,2188.9,2269.1,2181.7,2367.1z M2222.4,2367.1c3.5-42.5,13.9-83.6,31.2-121.8h103.1c3.5,19.7,20.6,34.8,41.3,34.8   c20.7,0,37.9-15,41.3-34.8h441.5c5.4,29,30.7,51,61.3,51c30.6,0,55.9-22,61.3-51h51.9c17.3,38.2,27.7,79.3,31.2,121.8H2222.4z    M3086.5,1197.2c-3.5,42.5-13.9,83.6-31.1,121.8h-574.8c-1-28.4-24.1-51.1-52.7-51.1c-28.6,0-51.7,22.7-52.7,51.1h-121.6   c-17.3-38.2-27.7-79.3-31.1-121.8H3086.5z M2263.7,1339.3h114.7c7.5,20.1,26.7,34.4,49.4,34.4c22.7,0,41.9-14.4,49.4-34.4h567.9   c-17.1,32.3-38.8,62.3-65.4,88.8L2836,1571.9h-136.6c-4.3-18.7-20.9-32.6-40.9-32.6s-36.6,13.9-40.9,32.6h-144.8l-143.8-143.7   C2302.5,1401.6,2280.8,1371.6,2263.7,1339.3z M2493.2,1592.2H2618c4.8,17.9,21,31.2,40.5,31.2s35.7-13.3,40.5-31.2h116.7   l-161.3,161.2L2493.2,1592.2z M2815.6,1972.1h-129.3c-3.3-22.2-22.3-39.4-45.4-39.4c-23.2,0-42.2,17.1-45.5,39.4h-102.2   l161.2-161.2L2815.6,1972.1z M2472.9,1992.4H2597c5.8,18.8,23.1,32.6,43.9,32.6s38-13.8,43.9-32.6H2836l143.8,143.8   c26.5,26.5,48.2,56.5,65.3,88.8h-41.5c-4.4-30.2-30.1-53.5-61.5-53.5c-31.4,0-57.1,23.3-61.5,53.5h-442.8   c-5.5-16.8-21.1-29-39.8-29c-18.7,0-34.3,12.2-39.8,29h-94.4c17.1-32.2,38.8-62.2,65.3-88.8L2472.9,1992.4z" style="fill: #cba978; fill-opacity: 1;"></path><circle cx="2852.5" cy="1400.9" r="13.6" style="fill: #cba978; fill-opacity: 1;"></circle><circle cx="2523.4" cy="715" r="95.6" style="fill: #cba978; fill-opacity: 1;"></circle><circle cx="1872.8" cy="865.6" r="35.3" style="fill: #cba978; fill-opacity: 1;"></circle><circle cx="1299" cy="1212.8" r="8.9" style="fill: #cba978; fill-opacity: 1;"></circle><circle cx="1975.1" cy="1610.8" r="29.5" style="fill: #cba978; fill-opacity: 1;"></circle><circle cx="1835" cy="2025" r="37.8" style="fill: #cba978; fill-opacity: 1;"></circle><circle cx="3612.2" cy="2157.2" r="28.9" style="fill: #cba978; fill-opacity: 1;"></circle><circle cx="3641" cy="1610.8" r="68.9" style="fill: #cba978; fill-opacity: 1;"></circle><polygon points="2774.4,483.5 2790.8,453.6 2820.7,437.2 2790.8,420.9 2774.4,391 2758.1,420.9 2728.2,437.2 2758.1,453.6  " style="fill: #cba978; fill-opacity: 1;"></polygon><polygon points="2942.1,795 2956.2,769.1 2982.1,755 2956.2,740.9 2942.1,715 2927.9,740.9 2902.1,755 2927.9,769.1  " style="fill: #cba978; fill-opacity: 1;"></polygon><polygon points="3595,1060 3616.3,1048.3 3595,1036.6 3583.3,1015.3 3571.6,1036.6 3550.2,1048.3 3571.6,1060 3583.3,1081.4  " style="fill: #cba978; fill-opacity: 1;"></polygon><polygon points="3042,1662.6 3035.6,1666.1 3042,1669.6 3045.5,1676 3049,1669.6 3055.5,1666.1 3049,1662.6 3045.5,1656.1  " style="fill: #cba978; fill-opacity: 1;"></polygon><polygon points="1564.1,443.3 1534.5,497.3 1480.5,526.9 1534.5,556.5 1564.1,610.5 1593.6,556.5 1647.7,526.9 1593.6,497.3  " style="fill: #cba978; fill-opacity: 1;"></polygon><polygon points="1500.3,1410.7 1477.8,1451.9 1436.6,1474.4 1477.8,1497 1500.3,1538.2 1522.9,1497 1564.1,1474.4 1522.9,1451.9     " style="fill: #cba978; fill-opacity: 1;"></polygon></svg> <svg xmlns="http://www.w3.org/2000/svg" y="348.85265639551596" viewBox="1.2799999713897705 1.2699999809265137 371.2099914550781 14.559999465942383" x="101.89501027473534" height="14.559999465942383" width="371.2099914550781" style="overflow: visible;"><g fill="#F5F5F5" fill-opacity="1" style=""><path d="M7.59 12.92L7.59 12.92Q7.59 13.49 7.37 13.99Q7.16 14.49 6.78 14.87Q6.41 15.24 5.90 15.46Q5.40 15.67 4.83 15.67L4.83 15.67L1.28 15.67L1.28 4.47L4.83 4.47Q5.40 4.47 5.90 4.68Q6.41 4.90 6.78 5.27Q7.16 5.65 7.37 6.15Q7.59 6.66 7.59 7.23L7.59 7.23L7.59 7.34Q7.59 7.73 7.48 8.10Q7.38 8.46 7.18 8.77Q6.98 9.09 6.72 9.34Q6.45 9.59 6.13 9.77L6.13 9.77Q6.45 9.94 6.72 10.19Q6.98 10.45 7.18 10.76Q7.38 11.08 7.48 11.44Q7.59 11.80 7.59 12.20L7.59 12.20L7.59 12.92ZM6.58 12.92L6.58 12.04Q6.58 11.66 6.44 11.34Q6.30 11.02 6.05 10.77Q5.80 10.53 5.48 10.39Q5.16 10.25 4.78 10.25L4.78 10.25L2.29 10.25L2.29 14.71L4.78 14.71Q5.16 14.71 5.48 14.57Q5.80 14.43 6.05 14.19Q6.30 13.95 6.44 13.62Q6.58 13.30 6.58 12.92L6.58 12.92ZM6.58 7.49L6.58 7.23Q6.58 6.85 6.44 6.53Q6.30 6.20 6.05 5.96Q5.80 5.71 5.48 5.57Q5.16 5.43 4.78 5.43L4.78 5.43L2.29 5.43L2.29 9.29L4.78 9.29Q5.16 9.29 5.48 9.15Q5.80 9.01 6.05 8.76Q6.30 8.52 6.44 8.19Q6.58 7.87 6.58 7.49L6.58 7.49ZM20.66 4.47L17.79 10.31L17.79 15.67L16.78 15.67L16.78 10.33L13.88 4.47L14.97 4.47L17.27 9.13L19.58 4.47L20.66 4.47ZM42.91 12.92L42.91 12.92Q42.91 13.49 42.70 13.99Q42.48 14.49 42.11 14.87Q41.73 15.24 41.23 15.46Q40.73 15.67 40.16 15.67L40.16 15.67L36.61 15.67L36.61 4.47L40.16 4.47Q40.73 4.47 41.23 4.68Q41.73 4.90 42.11 5.27Q42.48 5.65 42.70 6.15Q42.91 6.66 42.91 7.23L42.91 7.23L42.91 12.92ZM41.91 12.92L41.91 7.23Q41.91 6.85 41.77 6.53Q41.63 6.20 41.38 5.96Q41.13 5.71 40.81 5.57Q40.48 5.43 40.11 5.43L40.11 5.43L37.62 5.43L37.62 14.71L40.11 14.71Q40.48 14.71 40.81 14.57Q41.13 14.43 41.38 14.19Q41.63 13.95 41.77 13.62Q41.91 13.30 41.91 12.92L41.91 12.92ZM57.08 15.67L55.91 15.67L52.87 10.89L51.49 10.89L51.49 15.67L50.48 15.67L50.48 4.47L54.04 4.47Q54.61 4.47 55.11 4.68Q55.61 4.90 55.98 5.27Q56.36 5.65 56.57 6.15Q56.79 6.66 56.79 7.23L56.79 7.23L56.79 8.13Q56.79 8.70 56.57 9.21Q56.36 9.71 55.98 10.09Q55.61 10.46 55.11 10.68Q54.61 10.89 54.04 10.89L54.04 10.89L57.08 15.67ZM55.78 8.13L55.78 7.23Q55.78 6.85 55.64 6.53Q55.50 6.20 55.26 5.96Q55.01 5.71 54.69 5.57Q54.36 5.43 53.99 5.43L53.99 5.43L51.49 5.43L51.49 9.93L53.99 9.93Q54.36 9.93 54.69 9.79Q55.01 9.65 55.26 9.40Q55.50 9.16 55.64 8.83Q55.78 8.51 55.78 8.13L55.78 8.13ZM65.37 15.67L64.17 15.67L64.17 14.47L65.37 14.47L65.37 15.67ZM87.14 13.08L87.14 13.08Q87.14 13.65 86.92 14.15Q86.71 14.65 86.33 15.02Q85.96 15.40 85.46 15.61Q84.96 15.83 84.39 15.83L84.39 15.83L84.07 15.83Q83.50 15.83 82.99 15.61Q82.49 15.40 82.11 15.02Q81.74 14.65 81.52 14.15Q81.31 13.65 81.31 13.08L81.31 13.08L81.31 12.63L82.32 12.47L82.32 13.08Q82.32 13.45 82.46 13.78Q82.60 14.10 82.85 14.35Q83.09 14.59 83.42 14.73Q83.74 14.88 84.11 14.88L84.11 14.88L84.34 14.88Q84.71 14.88 85.04 14.73Q85.36 14.59 85.61 14.35Q85.85 14.10 85.99 13.78Q86.13 13.45 86.13 13.08L86.13 13.08L86.13 4.47L87.14 4.47L87.14 13.08ZM100.85 13.08L100.85 13.08Q100.85 13.65 100.64 14.15Q100.42 14.65 100.05 15.02Q99.67 15.40 99.17 15.61Q98.67 15.83 98.10 15.83L98.10 15.83L97.31 15.83Q96.74 15.83 96.23 15.61Q95.73 15.40 95.35 15.02Q94.98 14.65 94.76 14.15Q94.55 13.65 94.55 13.08L94.55 13.08L94.55 7.06Q94.55 6.49 94.76 5.99Q94.98 5.49 95.35 5.12Q95.73 4.74 96.23 4.53Q96.74 4.31 97.31 4.31L97.31 4.31L98.10 4.31Q98.67 4.31 99.17 4.53Q99.67 4.74 100.05 5.12Q100.42 5.49 100.64 5.99Q100.85 6.49 100.85 7.06L100.85 7.06L100.85 13.08ZM99.85 13.08L99.85 7.06Q99.85 6.69 99.71 6.36Q99.57 6.04 99.32 5.80Q99.08 5.55 98.76 5.41Q98.43 5.27 98.06 5.27L98.06 5.27L97.35 5.27Q96.98 5.27 96.65 5.41Q96.33 5.55 96.08 5.80Q95.84 6.04 95.70 6.36Q95.56 6.69 95.56 7.06L95.56 7.06L95.56 13.08Q95.56 13.45 95.70 13.78Q95.84 14.10 96.08 14.35Q96.33 14.59 96.65 14.73Q96.98 14.88 97.35 14.88L97.35 14.88L98.06 14.88Q98.43 14.88 98.76 14.73Q99.08 14.59 99.32 14.35Q99.57 14.10 99.71 13.78Q99.85 13.45 99.85 13.08L99.85 13.08ZM113.54 15.67L112.80 13.06L109.25 13.06L108.52 15.67L107.47 15.67L110.75 4.47L111.28 4.47L114.58 15.67L113.54 15.67ZM110.99 6.94L109.52 12.10L112.53 12.10L111.05 6.94L111.02 6.52L110.99 6.94ZM112.09 2.16L112.09 2.16Q112.42 2.16 112.59 1.92Q112.77 1.67 112.77 1.27L112.77 1.27L113.51 1.27Q113.51 1.63 113.42 1.93Q113.33 2.23 113.15 2.46Q112.97 2.69 112.70 2.82Q112.43 2.95 112.08 2.95L112.08 2.95Q111.70 2.95 111.42 2.81Q111.13 2.67 110.89 2.50Q110.64 2.34 110.42 2.20Q110.20 2.05 109.95 2.05L109.95 2.05Q109.62 2.05 109.46 2.30Q109.30 2.55 109.30 2.94L109.30 2.94L108.56 2.94Q108.56 2.59 108.65 2.29Q108.73 1.98 108.91 1.76Q109.09 1.53 109.36 1.40Q109.62 1.27 109.98 1.27L109.98 1.27Q110.34 1.27 110.61 1.41Q110.87 1.55 111.11 1.72Q111.35 1.88 111.59 2.02Q111.82 2.16 112.09 2.16ZM127.49 13.08L127.49 13.08Q127.49 13.65 127.27 14.15Q127.06 14.65 126.68 15.02Q126.31 15.40 125.81 15.61Q125.31 15.83 124.74 15.83L124.74 15.83L123.94 15.83Q123.37 15.83 122.87 15.61Q122.36 15.40 121.99 15.02Q121.61 14.65 121.40 14.15Q121.18 13.65 121.18 13.08L121.18 13.08L121.18 7.06Q121.18 6.49 121.40 5.99Q121.61 5.49 121.99 5.12Q122.36 4.74 122.87 4.53Q123.37 4.31 123.94 4.31L123.94 4.31L124.74 4.31Q125.31 4.31 125.81 4.53Q126.31 4.74 126.68 5.12Q127.06 5.49 127.27 5.99Q127.49 6.49 127.49 7.06L127.49 7.06L127.49 13.08ZM126.48 13.08L126.48 7.06Q126.48 6.69 126.34 6.36Q126.20 6.04 125.96 5.80Q125.72 5.55 125.39 5.41Q125.07 5.27 124.69 5.27L124.69 5.27L123.99 5.27Q123.61 5.27 123.29 5.41Q122.97 5.55 122.72 5.80Q122.47 6.04 122.33 6.36Q122.19 6.69 122.19 7.06L122.19 7.06L122.19 13.08Q122.19 13.45 122.33 13.78Q122.47 14.10 122.72 14.35Q122.97 14.59 123.29 14.73Q123.61 14.88 123.99 14.88L123.99 14.88L124.69 14.88Q125.07 14.88 125.39 14.73Q125.72 14.59 125.96 14.35Q126.20 14.10 126.34 13.78Q126.48 13.45 126.48 13.08L126.48 13.08ZM150.55 8.62L150.55 8.62Q150.55 9.19 150.33 9.69Q150.12 10.19 149.74 10.56Q149.37 10.94 148.86 11.15Q148.36 11.37 147.79 11.37L147.79 11.37L145.25 11.37L145.25 15.67L144.24 15.67L144.24 4.47L147.79 4.47Q148.36 4.47 148.86 4.68Q149.37 4.90 149.74 5.27Q150.12 5.65 150.33 6.15Q150.55 6.66 150.55 7.23L150.55 7.23L150.55 8.62ZM149.54 8.62L149.54 7.23Q149.54 6.85 149.40 6.53Q149.26 6.20 149.01 5.96Q148.77 5.71 148.44 5.57Q148.12 5.43 147.74 5.43L147.74 5.43L145.25 5.43L145.25 10.41L147.74 10.41Q148.12 10.41 148.44 10.27Q148.77 10.13 149.01 9.88Q149.26 9.64 149.40 9.32Q149.54 8.99 149.54 8.62L149.54 8.62ZM164.11 15.67L157.80 15.67L157.80 4.47L164.11 4.47L164.11 5.43L158.81 5.43L158.81 9.59L163.10 9.59L163.10 10.55L158.81 10.55L158.81 14.71L164.11 14.71L164.11 15.67ZM177.67 12.92L177.67 12.92Q177.67 13.49 177.45 13.99Q177.24 14.49 176.86 14.87Q176.49 15.24 175.98 15.46Q175.48 15.67 174.91 15.67L174.91 15.67L171.36 15.67L171.36 4.47L174.91 4.47Q175.48 4.47 175.98 4.68Q176.49 4.90 176.86 5.27Q177.24 5.65 177.45 6.15Q177.67 6.66 177.67 7.23L177.67 7.23L177.67 12.92ZM176.66 12.92L176.66 7.23Q176.66 6.85 176.52 6.53Q176.38 6.20 176.13 5.96Q175.89 5.71 175.56 5.57Q175.24 5.43 174.86 5.43L174.86 5.43L172.37 5.43L172.37 14.71L174.86 14.71Q175.24 14.71 175.56 14.57Q175.89 14.43 176.13 14.19Q176.38 13.95 176.52 13.62Q176.66 13.30 176.66 12.92L176.66 12.92ZM191.83 15.67L190.66 15.67L187.63 10.89L186.24 10.89L186.24 15.67L185.23 15.67L185.23 4.47L188.79 4.47Q189.36 4.47 189.86 4.68Q190.36 4.90 190.73 5.27Q191.11 5.65 191.32 6.15Q191.54 6.66 191.54 7.23L191.54 7.23L191.54 8.13Q191.54 8.70 191.32 9.21Q191.11 9.71 190.73 10.09Q190.36 10.46 189.86 10.68Q189.36 10.89 188.79 10.89L188.79 10.89L191.83 15.67ZM190.53 8.13L190.53 7.23Q190.53 6.85 190.39 6.53Q190.25 6.20 190.01 5.96Q189.77 5.71 189.44 5.57Q189.12 5.43 188.74 5.43L188.74 5.43L186.24 5.43L186.24 9.93L188.74 9.93Q189.12 9.93 189.44 9.79Q189.77 9.65 190.01 9.40Q190.25 9.16 190.39 8.83Q190.53 8.51 190.53 8.13L190.53 8.13ZM205.22 13.08L205.22 13.08Q205.22 13.65 205.01 14.15Q204.79 14.65 204.42 15.02Q204.04 15.40 203.54 15.61Q203.04 15.83 202.47 15.83L202.47 15.83L201.68 15.83Q201.11 15.83 200.60 15.61Q200.10 15.40 199.72 15.02Q199.35 14.65 199.13 14.15Q198.92 13.65 198.92 13.08L198.92 13.08L198.92 7.06Q198.92 6.49 199.13 5.99Q199.35 5.49 199.72 5.12Q200.10 4.74 200.60 4.53Q201.11 4.31 201.68 4.31L201.68 4.31L202.47 4.31Q203.04 4.31 203.54 4.53Q204.04 4.74 204.42 5.12Q204.79 5.49 205.01 5.99Q205.22 6.49 205.22 7.06L205.22 7.06L205.22 13.08ZM204.22 13.08L204.22 7.06Q204.22 6.69 204.08 6.36Q203.93 6.04 203.69 5.80Q203.45 5.55 203.13 5.41Q202.80 5.27 202.43 5.27L202.43 5.27L201.72 5.27Q201.35 5.27 201.02 5.41Q200.70 5.55 200.45 5.80Q200.21 6.04 200.07 6.36Q199.93 6.69 199.93 7.06L199.93 7.06L199.93 13.08Q199.93 13.45 200.07 13.78Q200.21 14.10 200.45 14.35Q200.70 14.59 201.02 14.73Q201.35 14.88 201.72 14.88L201.72 14.88L202.43 14.88Q202.80 14.88 203.13 14.73Q203.45 14.59 203.69 14.35Q203.93 14.10 204.08 13.78Q204.22 13.45 204.22 13.08L204.22 13.08ZM228.28 12.92L228.28 12.92Q228.28 13.49 228.07 13.99Q227.85 14.49 227.48 14.87Q227.10 15.24 226.60 15.46Q226.09 15.67 225.52 15.67L225.52 15.67L221.98 15.67L221.98 4.47L225.52 4.47Q226.09 4.47 226.60 4.68Q227.10 4.90 227.48 5.27Q227.85 5.65 228.07 6.15Q228.28 6.66 228.28 7.23L228.28 7.23L228.28 12.92ZM227.27 12.92L227.27 7.23Q227.27 6.85 227.13 6.53Q226.99 6.20 226.75 5.96Q226.50 5.71 226.18 5.57Q225.85 5.43 225.48 5.43L225.48 5.43L222.98 5.43L222.98 14.71L225.48 14.71Q225.85 14.71 226.18 14.57Q226.50 14.43 226.75 14.19Q226.99 13.95 227.13 13.62Q227.27 13.30 227.27 12.92L227.27 12.92ZM242.32 15.67L236.01 15.67L236.01 4.47L242.32 4.47L242.32 5.43L237.02 5.43L237.02 9.59L241.31 9.59L241.31 10.55L237.02 10.55L237.02 14.71L242.32 14.71L242.32 15.67ZM266.49 15.67L265.48 15.67L265.48 7.99L265.41 8.47L262.81 15.67L262.28 15.67L259.66 8.47L259.59 7.99L259.59 15.67L258.59 15.67L258.59 4.47L259.11 4.47L262.51 13.66L262.54 14.07L262.57 13.66L265.96 4.47L266.49 4.47L266.49 15.67ZM279.33 15.67L278.58 13.06L275.04 13.06L274.30 15.67L273.26 15.67L276.54 4.47L277.07 4.47L280.36 15.67L279.33 15.67ZM276.78 6.94L275.31 12.10L278.32 12.10L276.84 6.94L276.81 6.52L276.78 6.94ZM293.28 9.78L293.28 15.67L292.96 15.67L292.37 14.77Q292.00 15.26 291.48 15.54Q290.96 15.83 290.32 15.83L290.32 15.83L289.73 15.83Q289.16 15.83 288.65 15.61Q288.15 15.40 287.78 15.02Q287.40 14.65 287.19 14.15Q286.97 13.65 286.97 13.08L286.97 13.08L286.97 7.06Q286.97 6.49 287.19 5.99Q287.40 5.49 287.78 5.12Q288.15 4.74 288.65 4.53Q289.16 4.31 289.73 4.31L289.73 4.31L290.53 4.31Q291.10 4.31 291.60 4.53Q292.10 4.74 292.47 5.12Q292.85 5.49 293.06 5.99Q293.28 6.49 293.28 7.06L293.28 7.06L293.28 7.52L292.27 7.67L292.27 7.06Q292.27 6.69 292.13 6.36Q291.99 6.04 291.74 5.80Q291.50 5.55 291.18 5.41Q290.85 5.27 290.48 5.27L290.48 5.27L289.78 5.27Q289.40 5.27 289.08 5.41Q288.75 5.55 288.51 5.80Q288.26 6.04 288.12 6.36Q287.98 6.69 287.98 7.06L287.98 7.06L287.98 13.08Q287.98 13.45 288.12 13.78Q288.26 14.10 288.51 14.35Q288.75 14.59 289.08 14.73Q289.40 14.88 289.78 14.88L289.78 14.88L290.48 14.88Q290.85 14.88 291.18 14.73Q291.50 14.59 291.74 14.35Q291.99 14.10 292.13 13.78Q292.27 13.45 292.27 13.08L292.27 13.08L292.27 10.74L290.48 10.74L290.48 9.78L293.28 9.78ZM305.96 15.67L305.22 13.06L301.67 13.06L300.94 15.67L299.89 15.67L303.17 4.47L303.70 4.47L307 15.67L305.96 15.67ZM303.41 6.94L301.95 12.10L304.95 12.10L303.48 6.94L303.45 6.52L303.41 6.94ZM318.90 15.67L313.61 15.67L313.61 4.47L314.61 4.47L314.61 14.71L318.90 14.71L318.90 15.67ZM332.14 15.67L331.14 15.67L331.14 10.55L326.85 10.55L326.85 15.67L325.84 15.67L325.84 4.47L326.85 4.47L326.85 9.59L331.14 9.59L331.14 4.47L332.14 4.47L332.14 15.67ZM344.98 15.67L344.24 13.06L340.70 13.06L339.96 15.67L338.91 15.67L342.20 4.47L342.73 4.47L346.02 15.67L344.98 15.67ZM342.44 6.94L340.97 12.10L343.98 12.10L342.50 6.94L342.47 6.52L342.44 6.94ZM343.54 2.16L343.54 2.16Q343.87 2.16 344.04 1.92Q344.21 1.67 344.21 1.27L344.21 1.27L344.95 1.27Q344.95 1.63 344.86 1.93Q344.77 2.23 344.59 2.46Q344.41 2.69 344.14 2.82Q343.87 2.95 343.52 2.95L343.52 2.95Q343.15 2.95 342.86 2.81Q342.58 2.67 342.33 2.50Q342.09 2.34 341.86 2.20Q341.64 2.05 341.40 2.05L341.40 2.05Q341.07 2.05 340.91 2.30Q340.74 2.55 340.74 2.94L340.74 2.94L340.01 2.94Q340.01 2.59 340.09 2.29Q340.18 1.98 340.36 1.76Q340.53 1.53 340.80 1.40Q341.07 1.27 341.43 1.27L341.43 1.27Q341.78 1.27 342.05 1.41Q342.32 1.55 342.56 1.72Q342.80 1.88 343.03 2.02Q343.27 2.16 343.54 2.16ZM359.10 15.67L352.79 15.67L352.79 4.47L359.10 4.47L359.10 5.43L353.80 5.43L353.80 9.59L358.09 9.59L358.09 10.55L353.80 10.55L353.80 14.71L359.10 14.71L359.10 15.67ZM372.49 12.74L372.49 13.08Q372.49 13.65 372.26 14.15Q372.03 14.65 371.65 15.02Q371.26 15.40 370.75 15.61Q370.24 15.83 369.67 15.83L369.67 15.83L368.86 15.83Q368.29 15.83 367.78 15.61Q367.27 15.40 366.88 15.02Q366.49 14.65 366.26 14.15Q366.03 13.65 366.03 13.08L366.03 13.08L366.03 12.63L367.04 12.47L367.04 13.08Q367.04 13.45 367.19 13.78Q367.35 14.10 367.60 14.35Q367.86 14.59 368.20 14.73Q368.54 14.88 368.92 14.88L368.92 14.88L369.62 14.88Q369.99 14.88 370.33 14.73Q370.67 14.59 370.92 14.35Q371.18 14.10 371.33 13.78Q371.49 13.45 371.49 13.08L371.49 13.08L371.49 12.74Q371.49 12.16 371.26 11.78Q371.03 11.40 370.66 11.13Q370.28 10.86 369.81 10.67Q369.34 10.48 368.84 10.30Q368.34 10.11 367.87 9.88Q367.39 9.66 367.02 9.32Q366.64 8.98 366.42 8.48Q366.19 7.99 366.19 7.27L366.19 7.27L366.19 7.06Q366.19 6.49 366.40 5.99Q366.62 5.49 366.99 5.12Q367.37 4.74 367.87 4.53Q368.38 4.31 368.95 4.31L368.95 4.31L369.67 4.31Q370.24 4.31 370.74 4.53Q371.24 4.74 371.61 5.12Q371.99 5.49 372.20 5.99Q372.42 6.49 372.42 7.06L372.42 7.06L372.42 7.35L371.41 7.52L371.41 7.06Q371.41 6.69 371.27 6.36Q371.13 6.04 370.89 5.80Q370.64 5.55 370.32 5.41Q369.99 5.27 369.62 5.27L369.62 5.27L368.99 5.27Q368.62 5.27 368.30 5.41Q367.97 5.55 367.73 5.80Q367.48 6.04 367.34 6.36Q367.20 6.69 367.20 7.06L367.20 7.06L367.20 7.27Q367.20 7.81 367.42 8.18Q367.65 8.55 368.03 8.81Q368.40 9.07 368.87 9.26Q369.35 9.45 369.85 9.65Q370.35 9.85 370.82 10.09Q371.29 10.33 371.67 10.68Q372.04 11.02 372.27 11.52Q372.49 12.02 372.49 12.74L372.49 12.74Z" transform="translate(0, 0)"></path></g></svg> <svg xmlns="http://www.w3.org/2000/svg" y="308.2868850491204" viewBox="3.190000057220459 6.650000095367432 394.989990234375 28.6299991607666" x="90.0050048828125" height="28.6299991607666" width="394.989990234375" style="overflow: visible;"><g fill="#F5F5F5" fill-opacity="1" style=""><path d="M10.50 34.66Q8.46 34.66 6.57 34.09Q4.68 33.51 3.19 32.49L3.19 32.49L3.19 27.73Q4.21 30.37 6.31 31.72Q8.42 33.08 10.70 33.08L10.70 33.08Q12.98 33.08 14.52 31.57Q16.05 30.05 16.05 27.81L16.05 27.81Q16.05 26.32 15.44 25.25Q14.83 24.19 13.49 23.27Q12.15 22.34 9.72 21.20L9.72 21.20Q6.29 19.63 4.74 17.92Q3.19 16.21 3.19 13.77L3.19 13.77Q3.19 11.68 4.19 10.05Q5.19 8.42 6.90 7.53Q8.61 6.65 10.66 6.65L10.66 6.65Q12.43 6.65 14.12 7.14Q15.81 7.63 17.27 8.54L17.27 8.54L17.27 12.78Q16.32 10.62 14.42 9.42Q12.51 8.22 10.54 8.22L10.54 8.22Q8.30 8.22 6.92 9.68Q5.55 11.13 5.55 13.14L5.55 13.14Q5.55 14.59 6.37 15.64Q7.20 16.68 8.40 17.39Q9.60 18.09 11.76 19.12L11.76 19.12Q13.96 20.18 15.38 21.08Q16.80 21.99 17.74 23.44Q18.68 24.90 18.68 26.98L18.68 26.98Q18.68 29.35 17.56 31.08Q16.44 32.81 14.57 33.73Q12.71 34.66 10.50 34.66L10.50 34.66ZM42.63 34.18L27.80 34.18Q27.80 34.30 28.27 34.01Q28.75 33.71 29.12 32.83Q29.49 31.94 29.49 30.25L29.49 30.25L29.49 10.94Q29.49 9.32 29.12 8.48Q28.75 7.63 28.27 7.32Q27.80 7.00 27.80 7.12L27.80 7.12L42.04 7.12L42.04 11.05Q41.33 8.69 37.79 8.69L37.79 8.69L32.32 8.69L32.32 19.86L39.09 19.86Q39.88 19.86 40.43 19.61Q40.98 19.35 41.25 19.08Q41.53 18.80 41.57 18.72L41.57 18.72L41.57 22.54Q41.53 22.46 41.25 22.19Q40.98 21.91 40.45 21.67Q39.92 21.44 39.13 21.44L39.13 21.44L32.32 21.44L32.32 32.61L38.46 32.61Q40.23 32.61 41.51 31.88Q42.79 31.15 43.34 30.01L43.34 30.01L42.63 34.18ZM72.04 7.12L77.59 7.12Q77.04 7.24 76.51 8.00Q75.98 8.77 75.98 10.70L75.98 10.70L75.98 35.28L55.84 11.80L55.84 30.64Q55.84 32.53 56.51 33.30Q57.18 34.07 57.80 34.18L57.80 34.18L52.26 34.18Q52.81 34.07 53.38 33.30Q53.95 32.53 53.95 30.60L53.95 30.60L53.95 10.94Q53.95 9.60 53.05 8.50Q52.14 7.40 50.76 7.12L50.76 7.12L55.64 7.12L74.09 28.64L74.09 10.70Q74.09 7.67 72.04 7.12L72.04 7.12ZM102.25 34.18L87.42 34.18Q87.42 34.30 87.89 34.01Q88.36 33.71 88.73 32.83Q89.11 31.94 89.11 30.25L89.11 30.25L89.11 10.94Q89.11 9.32 88.73 8.48Q88.36 7.63 87.89 7.32Q87.42 7.00 87.42 7.12L87.42 7.12L101.66 7.12L101.66 11.05Q100.95 8.69 97.41 8.69L97.41 8.69L91.94 8.69L91.94 19.86L98.71 19.86Q99.49 19.86 100.04 19.61Q100.59 19.35 100.87 19.08Q101.14 18.80 101.18 18.72L101.18 18.72L101.18 22.54Q101.14 22.46 100.87 22.19Q100.59 21.91 100.06 21.67Q99.53 21.44 98.74 21.44L98.74 21.44L91.94 21.44L91.94 32.61L98.08 32.61Q99.85 32.61 101.12 31.88Q102.40 31.15 102.95 30.01L102.95 30.01L102.25 34.18ZM119.03 34.66Q116.99 34.66 115.10 34.09Q113.21 33.51 111.72 32.49L111.72 32.49L111.72 27.73Q112.74 30.37 114.84 31.72Q116.95 33.08 119.23 33.08L119.23 33.08Q121.51 33.08 123.04 31.57Q124.58 30.05 124.58 27.81L124.58 27.81Q124.58 26.32 123.97 25.25Q123.36 24.19 122.02 23.27Q120.68 22.34 118.25 21.20L118.25 21.20Q114.82 19.63 113.27 17.92Q111.72 16.21 111.72 13.77L111.72 13.77Q111.72 11.68 112.72 10.05Q113.72 8.42 115.43 7.53Q117.14 6.65 119.19 6.65L119.19 6.65Q120.96 6.65 122.65 7.14Q124.34 7.63 125.80 8.54L125.80 8.54L125.80 12.78Q124.85 10.62 122.95 9.42Q121.04 8.22 119.07 8.22L119.07 8.22Q116.83 8.22 115.45 9.68Q114.08 11.13 114.08 13.14L114.08 13.14Q114.08 14.59 114.90 15.64Q115.73 16.68 116.93 17.39Q118.13 18.09 120.29 19.12L120.29 19.12Q122.49 20.18 123.91 21.08Q125.33 21.99 126.27 23.44Q127.21 24.90 127.21 26.98L127.21 26.98Q127.21 29.35 126.09 31.08Q124.97 32.81 123.10 33.73Q121.24 34.66 119.03 34.66L119.03 34.66ZM158.00 31.78Q156.51 33.00 154.11 33.83Q151.71 34.66 149.27 34.66L149.27 34.66Q145.61 34.66 142.47 32.96Q139.32 31.27 137.41 28.09Q135.50 24.90 135.50 20.61L135.50 20.61Q135.50 16.60 137.25 13.41Q139.01 10.23 142.25 8.44Q145.50 6.65 149.82 6.65L149.82 6.65Q154.43 6.65 158.00 8.65L158.00 8.65L158.00 13.02Q156.79 10.86 154.46 9.58Q152.14 8.30 149.51 8.30L149.51 8.30Q146.16 8.30 143.71 9.87Q141.25 11.45 139.95 14.18Q138.65 16.91 138.65 20.30L138.65 20.30Q138.65 24.11 140.13 26.95Q141.60 29.78 144.12 31.29Q146.64 32.81 149.74 32.81L149.74 32.81Q154.74 32.81 158.00 29.90L158.00 29.90L158.00 31.78ZM182.54 34.18L167.71 34.18Q167.71 34.30 168.18 34.01Q168.66 33.71 169.03 32.83Q169.40 31.94 169.40 30.25L169.40 30.25L169.40 10.94Q169.40 9.32 169.03 8.48Q168.66 7.63 168.18 7.32Q167.71 7.00 167.71 7.12L167.71 7.12L181.95 7.12L181.95 11.05Q181.24 8.69 177.70 8.69L177.70 8.69L172.23 8.69L172.23 19.86L179.00 19.86Q179.79 19.86 180.34 19.61Q180.89 19.35 181.16 19.08Q181.44 18.80 181.48 18.72L181.48 18.72L181.48 22.54Q181.44 22.46 181.16 22.19Q180.89 21.91 180.36 21.67Q179.83 21.44 179.04 21.44L179.04 21.44L172.23 21.44L172.23 32.61L178.37 32.61Q180.14 32.61 181.42 31.88Q182.70 31.15 183.25 30.01L183.25 30.01L182.54 34.18ZM211.95 7.12L217.50 7.12Q216.95 7.24 216.42 8.00Q215.89 8.77 215.89 10.70L215.89 10.70L215.89 35.28L195.75 11.80L195.75 30.64Q195.75 32.53 196.42 33.30Q197.09 34.07 197.72 34.18L197.72 34.18L192.17 34.18Q192.72 34.07 193.29 33.30Q193.86 32.53 193.86 30.60L193.86 30.60L193.86 10.94Q193.86 9.60 192.96 8.50Q192.05 7.40 190.67 7.12L190.67 7.12L195.55 7.12L214.00 28.64L214.00 10.70Q214.00 7.67 211.95 7.12L211.95 7.12ZM249.00 31.78Q247.51 33.00 245.11 33.83Q242.71 34.66 240.27 34.66L240.27 34.66Q236.61 34.66 233.46 32.96Q230.32 31.27 228.41 28.09Q226.50 24.90 226.50 20.61L226.50 20.61Q226.50 16.60 228.25 13.41Q230.00 10.23 233.25 8.44Q236.49 6.65 240.82 6.65L240.82 6.65Q245.42 6.65 249.00 8.65L249.00 8.65L249.00 13.02Q247.78 10.86 245.46 9.58Q243.14 8.30 240.50 8.30L240.50 8.30Q237.16 8.30 234.70 9.87Q232.24 11.45 230.94 14.18Q229.65 16.91 229.65 20.30L229.65 20.30Q229.65 24.11 231.12 26.95Q232.60 29.78 235.11 31.29Q237.63 32.81 240.74 32.81L240.74 32.81Q245.74 32.81 249.00 29.90L249.00 29.90L249.00 31.78ZM273.54 34.18L258.71 34.18Q258.71 34.30 259.18 34.01Q259.65 33.71 260.02 32.83Q260.40 31.94 260.40 30.25L260.40 30.25L260.40 10.94Q260.40 9.32 260.02 8.48Q259.65 7.63 259.18 7.32Q258.71 7.00 258.71 7.12L258.71 7.12L272.95 7.12L272.95 11.05Q272.24 8.69 268.70 8.69L268.70 8.69L263.23 8.69L263.23 19.86L270.00 19.86Q270.78 19.86 271.33 19.61Q271.88 19.35 272.16 19.08Q272.43 18.80 272.47 18.72L272.47 18.72L272.47 22.54Q272.43 22.46 272.16 22.19Q271.88 21.91 271.35 21.67Q270.82 21.44 270.04 21.44L270.04 21.44L263.23 21.44L263.23 32.61L269.37 32.61Q271.14 32.61 272.42 31.88Q273.69 31.15 274.24 30.01L274.24 30.01L273.54 34.18ZM284.86 34.58Q284.07 34.58 283.46 34.05Q282.85 33.51 282.85 32.57L282.85 32.57Q282.85 31.63 283.44 31.12Q284.03 30.60 284.86 30.60L284.86 30.60Q285.68 30.60 286.27 31.12Q286.86 31.63 286.86 32.57L286.86 32.57Q286.86 33.51 286.25 34.05Q285.64 34.58 284.86 34.58L284.86 34.58ZM296.88 34.18Q296.88 34.30 297.35 34.01Q297.83 33.71 298.22 32.90Q298.61 32.10 298.61 30.53L298.61 30.53L298.61 10.78Q298.61 9.20 298.24 8.40Q297.87 7.59 297.39 7.32Q296.92 7.04 296.92 7.12L296.92 7.12L303.18 7.12Q303.18 7.04 302.70 7.32Q302.23 7.59 301.84 8.40Q301.45 9.20 301.45 10.78L301.45 10.78L301.45 30.53Q301.45 32.10 301.84 32.90Q302.23 33.71 302.70 33.99Q303.18 34.26 303.18 34.18L303.18 34.18L296.88 34.18ZM332.67 7.12L338.22 7.12Q337.66 7.24 337.13 8.00Q336.60 8.77 336.60 10.70L336.60 10.70L336.60 35.28L316.46 11.80L316.46 30.64Q316.46 32.53 317.13 33.30Q317.80 34.07 318.43 34.18L318.43 34.18L312.88 34.18Q313.43 34.07 314.00 33.30Q314.57 32.53 314.57 30.60L314.57 30.60L314.57 10.94Q314.57 9.60 313.67 8.50Q312.76 7.40 311.39 7.12L311.39 7.12L316.27 7.12L334.71 28.64L334.71 10.70Q334.71 7.67 332.67 7.12L332.67 7.12ZM358.62 8.69L352.56 8.69L352.56 19.86L359.37 19.86Q360.82 19.86 361.32 19.43Q361.81 19.00 361.81 18.72L361.81 18.72L361.81 22.58Q361.81 22.46 361.63 22.21Q361.45 21.95 360.92 21.69Q360.39 21.44 359.37 21.44L359.37 21.44L352.56 21.44L352.56 30.53Q352.56 32.06 352.96 32.87Q353.35 33.67 353.82 33.97Q354.29 34.26 354.29 34.18L354.29 34.18L348.04 34.18Q348.04 34.26 348.51 33.99Q348.98 33.71 349.36 32.90Q349.73 32.10 349.73 30.53L349.73 30.53L349.73 10.97Q349.73 9.36 349.36 8.52Q348.98 7.67 348.51 7.34Q348.04 7.00 348.04 7.12L348.04 7.12L362.28 7.12L362.28 11.13Q362.08 10.19 361.18 9.44Q360.27 8.69 358.62 8.69L358.62 8.69ZM370.41 20.97Q370.41 16.80 372.20 13.53Q373.99 10.27 377.24 8.46Q380.48 6.65 384.73 6.65L384.73 6.65Q388.27 6.65 391.36 8.20Q394.45 9.76 396.32 12.86Q398.18 15.97 398.18 20.34L398.18 20.34Q398.18 24.51 396.39 27.77Q394.60 31.04 391.36 32.85Q388.11 34.66 383.87 34.66L383.87 34.66Q380.33 34.66 377.24 33.10Q374.15 31.55 372.28 28.44Q370.41 25.33 370.41 20.97L370.41 20.97ZM395.04 20.93Q395.04 17.35 393.56 14.46Q392.09 11.56 389.51 9.93Q386.93 8.30 383.71 8.30L383.71 8.30Q380.76 8.30 378.46 9.79Q376.16 11.29 374.86 14.02Q373.56 16.76 373.56 20.38L373.56 20.38Q373.56 23.96 375.03 26.85Q376.51 29.74 379.09 31.37Q381.66 33.00 384.89 33.00L384.89 33.00Q387.84 33.00 390.14 31.51Q392.44 30.01 393.74 27.28Q395.04 24.55 395.04 20.93L395.04 20.93Z" transform="translate(0, 0)"></path></g></svg></svg>